<?xml version="1.0" encoding="UTF-8"?>
<svg width="64" height="64" viewBox="0 0 64 64" fill="none" xmlns="http://www.w3.org/2000/svg">
  <rect width="64" height="64" rx="12" fill="#0A0F1D"/>
  <path d="M32 16L16 32L32 48L48 32L32 16Z" fill="none" stroke="#05D9E8" stroke-width="4" stroke-linecap="round" stroke-linejoin="round"/>
  <path d="M32 24L24 32L32 40L40 32L32 24Z" fill="none" stroke="#D300FF" stroke-width="4" stroke-linecap="round" stroke-linejoin="round"/>
  <path d="M32 32L24 24L16 32L24 40L32 32Z" fill="none" stroke="#FF2A6D" stroke-width="2" stroke-linecap="round" stroke-linejoin="round"/>
  <path d="M32 32L40 24L48 32L40 40L32 32Z" fill="none" stroke="#FF2A6D" stroke-width="2" stroke-linecap="round" stroke-linejoin="round"/>
  <path d="M32 32L40 40L32 48L24 40L32 32Z" fill="none" stroke="#05D9E8" stroke-width="2" stroke-linecap="round" stroke-linejoin="round"/>
  <path d="M32 32L40 24L32 16L24 24L32 32Z" fill="none" stroke="#D300FF" stroke-width="2" stroke-linecap="round" stroke-linejoin="round"/>
  <circle cx="32" cy="32" r="4" fill="#05D9E8"/>
  <path d="M32 16V32M32 32V48M16 32H32M32 32H48M24 24L32 32M40 40L32 32M40 24L32 32M24 40L32 32" stroke="#05D9E8" stroke-width="2" stroke-linecap="round" stroke-linejoin="round"/>
</svg>
